# xmcd
#
# Track frame offsets: 
#        150
#        13602
#        28672
#        38927
#        60215
#        72200
#        93965
#        114867
#        131490
#        145912
#        165042
#        179915
#        192077
#        208775
#        222885
#        236462
#        251265
#        264680
#        277477
#        304806
#
# Disc length: 4260 seconds
#
# Revision: 2
# Processed by: cddbd v1.5.2PL0 Copyright (c) Steve Scherf et al.
# Submitted via: ExactAudioCopy v0.95b3
#
DISCID=1c10a214
DTITLE=Dr. John - The Anthology
DYEAR=2004
DGENRE=Jazz
TTITLE0=In The Night
TTITLE1=Tipitina
TTITLE2=Woman Is The Root Of All Evil
TTITLE3=Mean Cheatin' Woman
TTITLE4=Bald Head
TTITLE5=Qualified
TTITLE6=Just Like A Mirror
TTITLE7=Wash, Mama, Wash
TTITLE8=What Goes Around (Comes Around)
TTITLE9=Shoo Ra
TTITLE10=Quitters Never Win
TTITLE11=Cat And Mouse Game
TTITLE12=Danger Zone
TTITLE13=She`s Just A Square
TTITLE14=Mama Roux
TTITLE15=A Little Closer To My Home
TTITLE16=I Pulled The Cover Off You Two Lovers
TTITLE17=Go Ahead On
TTITLE18=Bring Your Love
TTITLE19=Make Your Own
EXTD=
EXTT0=
EXTT1=
EXTT2=
EXTT3=
EXTT4=
EXTT5=
EXTT6=
EXTT7=
EXTT8=
EXTT9=
EXTT10=
EXTT11=
EXTT12=
EXTT13=
EXTT14=
EXTT15=
EXTT16=
EXTT17=
EXTT18=
EXTT19=
PLAYORDER=
